<svg id="Layer_1" data-name="Layer 1" xmlns="http://www.w3.org/2000/svg" viewBox="0 0 314.72 304.34">
  <circle cx="19.21" cy="19.21" r="16.71" fill="none" stroke="#999" stroke-miterlimit="10" stroke-width="5"/>
  <circle cx="19.21" cy="72.79" r="16.71" fill="none" stroke="#999" stroke-miterlimit="10" stroke-width="5"/>
  <circle cx="19.21" cy="128.05" r="16.71" fill="none" stroke="#999" stroke-miterlimit="10" stroke-width="5"/>
  <circle cx="19.21" cy="179.5" r="16.71" fill="none" stroke="#999" stroke-miterlimit="10" stroke-width="5"/>
  <circle cx="19.21" cy="232.98" r="16.71" fill="none" stroke="#999" stroke-miterlimit="10" stroke-width="5"/>
  <circle cx="19.21" cy="285.13" r="16.71" fill="none" stroke="#999" stroke-miterlimit="10" stroke-width="5"/>
  <circle cx="76.97" cy="19.21" r="16.71" fill="none" stroke="#999" stroke-miterlimit="10" stroke-width="5"/>
  <circle cx="76.97" cy="72.79" r="16.71" fill="none" stroke="#999" stroke-miterlimit="10" stroke-width="5"/>
  <circle cx="76.97" cy="128.05" r="16.71" fill="none" stroke="#999" stroke-miterlimit="10" stroke-width="5"/>
  <circle cx="76.97" cy="179.5" r="16.71" fill="none" stroke="#999" stroke-miterlimit="10" stroke-width="5"/>
  <circle cx="76.97" cy="232.98" r="16.71" fill="none" stroke="#999" stroke-miterlimit="10" stroke-width="5"/>
  <circle cx="76.97" cy="285.13" r="16.71" fill="none" stroke="#999" stroke-miterlimit="10" stroke-width="5"/>
  <circle cx="133.81" cy="19.21" r="16.71" fill="none" stroke="#999" stroke-miterlimit="10" stroke-width="5"/>
  <circle cx="133.81" cy="72.79" r="16.71" fill="none" stroke="#999" stroke-miterlimit="10" stroke-width="5"/>
  <circle cx="133.81" cy="128.05" r="16.71" fill="none" stroke="#999" stroke-miterlimit="10" stroke-width="5"/>
  <circle cx="133.81" cy="179.5" r="16.71" fill="none" stroke="#999" stroke-miterlimit="10" stroke-width="5"/>
  <circle cx="133.81" cy="232.98" r="16.71" fill="none" stroke="#999" stroke-miterlimit="10" stroke-width="5"/>
  <circle cx="133.81" cy="285.13" r="16.71" fill="none" stroke="#999" stroke-miterlimit="10" stroke-width="5"/>
  <circle cx="185.12" cy="19.21" r="16.71" fill="none" stroke="#999" stroke-miterlimit="10" stroke-width="5"/>
  <circle cx="185.12" cy="72.79" r="16.71" fill="none" stroke="#999" stroke-miterlimit="10" stroke-width="5"/>
  <circle cx="185.12" cy="128.05" r="16.71" fill="none" stroke="#999" stroke-miterlimit="10" stroke-width="5"/>
  <circle cx="240.31" cy="19.21" r="16.71" fill="none" stroke="#999" stroke-miterlimit="10" stroke-width="5"/>
  <circle cx="240.31" cy="72.79" r="16.71" fill="none" stroke="#999" stroke-miterlimit="10" stroke-width="5"/>
  <circle cx="240.31" cy="128.05" r="16.71" fill="none" stroke="#999" stroke-miterlimit="10" stroke-width="5"/>
  <circle cx="295.51" cy="19.21" r="16.71" fill="none" stroke="#999" stroke-miterlimit="10" stroke-width="5"/>
  <circle cx="295.51" cy="72.79" r="16.71" fill="none" stroke="#999" stroke-miterlimit="10" stroke-width="5"/>
  <circle cx="295.51" cy="128.05" r="16.71" fill="none" stroke="#999" stroke-miterlimit="10" stroke-width="5"/>
</svg>
