<?xml version="1.0" encoding="utf-8"?>
<!-- Generator: Adobe Illustrator 25.4.1, SVG Export Plug-In . SVG Version: 6.00 Build 0)  -->
<svg version="1.1" id="Capa_1" xmlns="http://www.w3.org/2000/svg" xmlns:xlink="http://www.w3.org/1999/xlink" x="0px" y="0px"
	 viewBox="0 0 91 111.7" style="enable-background:new 0 0 91 111.7;" xml:space="preserve">
<style type="text/css">
	.st0{fill:#1D1D1B;}
</style>
<path class="st0" d="M20.9,24.4c-0.1-0.5-0.3-0.9-0.4-1.4c0,0,0,0,0,0c0.1-0.1,0.2-0.2,0.3-0.3c0.5,0.1,1-0.3,0.9-0.9
	c0-0.1,0-0.1-0.1-0.2c5.5-7.8,1.9-17.9-7-21.5c-0.5-0.2-1.1,0.1-1.3,0.5c-2.1,3.7-3.5,9.4-2.6,14c-2.9-1.4-6.3-1.6-9.5-1.4
	c-1.3,0.1-1.8,1.4-1,2.4C3.8,19.9,5.7,26,11,28.5c2.8,1.4,6.5,1.5,8.9-0.5c0.8,3.4,1.8,6.7,2.9,10c-4.2-3.1-10.5-4.1-15.1-3
	c-0.9,0.2-1.4,1.6-0.6,2.3c2.8,2.2,4.6,5.6,6.8,8.5c-1.4,2.3-3.2,4.2-5.5,5.8c-0.7,0.5-0.9,1.4-0.3,2.1c5.7,6,17.1,5.4,20.1-2.7
	c1.9,3.8,4.1,7.6,6.5,11.2c-4.3-2.8-9.3-4.1-14.5-2.6c-1.1,0.3-1.4,1.7-0.7,2.5c4,4.1,5.8,9.4,11.7,11.2c3.7,1.2,7.6,0.7,10.8-1.3
	c2.6,3.2,5.5,6.1,8.4,9c-6.6-2.2-13.5-1.6-20,1.6c-0.9,0.5-0.9,1.7-0.3,2.4c7,7.6,18.6,8.3,25.5,0.6c3.4,2.8,6.9,5.4,10.6,7.7
	c-6.9,0.1-9.5,11.6-11.3,16.7c-0.4,1.2,0.8,2.1,1.9,1.9c4.6-0.9,9.9-2.2,12.8-6.2c2.2-3,2.7-7.2,0.3-10.1c5,2.8,10.3,5.2,15.8,7
	c0.9,0.3,1.5-1.1,0.6-1.5c-5.3-2.5-10.4-5.2-15.2-8.2c7.2,1,15.9,1.4,19.5-5.9c0.4-0.7-0.3-1.9-1.2-1.6c-5.3,2-10.5-3.3-16.2-1.7
	c-3.1,0.9-5.7,3-7.2,5.8c-4-2.8-7.9-5.8-11.5-9.1c4.3,0.9,8.7,1.2,12.5-1.4c3.8-2.7,5.4-7.4,9-10.3c1.3-1-0.4-2.6-1.6-2.1
	C71.4,67.8,64.7,64,61,66c-0.8-4.1-3.1-7.9-5.1-11.5c-0.6-1-2.1-0.5-2.1,0.6c0,6.5-8.4,16-2.5,21.7C45.9,71.6,41.1,66,37,59.8
	c4-0.1,7.5-3,8.9-7c2.3-6.2-1.2-12.7-4.1-18.1c-0.5-0.9-1.8-0.6-2.1,0.3c-1.4,4.8-5.4,8.2-6.5,13.2c-0.4,1.8-0.4,3.5-0.2,5.2
	c-3.4-5.8-6.3-11.9-8.7-18.4c0,0,0,0,0,0c3.4,2.3,8.4,0.8,10.8-2.5c4-5.4,2-12.6,0.1-18.4c-0.3-0.9-2-1.2-2.2,0
	c-0.7,5.3-9,9.4-10.9,14.6c-0.3-0.9-0.5-1.8-0.8-2.7 M4,15.8c2.6,0,4.9,0.6,7.5,1c1.1,2.7,3.4,4.8,7.1,5.3c0,0.2,0.1,0.4,0.1,0.5
	c0,0.3,0.1,0.5,0.2,0.8c-0.9-0.4-1.9-0.7-2.7-1.2c-1.7-0.8-3.4-1.8-5-2.8c-0.6-0.4-1.3,0.5-0.8,1c2.5,2.1,5.7,4.4,8.9,5.3
	c0,0.2,0.1,0.4,0.1,0.6C12.2,29.5,7.9,21.3,4,15.8z M19.2,16c-0.6-1.8-0.9-3.7-1.7-5.5c-0.1-0.3-0.5-0.2-0.6,0.1
	c-1,2.6-0.2,7,1.6,9.8C12.4,16,12.8,9.2,15.1,2.7c6.6,2.8,8.5,10.2,5.4,16.1C20,17.9,19.5,16.9,19.2,16z M31.6,21.8
	c1.1-1.1,2-2.2,2.6-3.5c0.9,3.1,1.5,6.3,0.5,9.4c-1.5,4.8-6.4,7-10.6,3.9c-0.1,0-0.1,0-0.2-0.1c3.5-1.1,6.8-3.7,7.7-7.4
	c0.3-1.1-1.1-1.6-1.7-0.7c-1.6,2.3-3.3,4.3-5.7,5.7C25.8,26.2,29.4,23.9,31.6,21.8z M11,52.6c1.8-1.6,3.1-3.5,3.9-5.7
	c1.2,1.3,2.6,2.4,4.4,3c0.8,0.3,1.7,0.4,2.6,0.4c-0.1,0-0.2,0.1-0.3,0.1c-1.7,0.4-3.5,0.5-5.3,0.5c-1,0-0.9,1.4,0,1.5
	c2.7,0.3,6,0.2,8.6-1C21.1,55.3,15.7,56.5,11,52.6z M25.9,46.2c-1-0.6-2.2-1-3.2-1.7c-1.6-1.1-3-2.4-4.1-4c-0.3-0.4-1-0.1-0.7,0.4
	c1,1.7,2.2,3.3,3.8,4.6c0.7,0.6,1.7,1.4,2.6,1.9c-4.2,1.5-9.8-6.2-13.4-10.3c2.9-0.3,5.8,0.3,8.4,1.8c2.9,1.6,4.4,4,6.5,6.5
	C25.8,45.6,25.9,45.9,25.9,46.2C25.9,46.1,25.9,46.1,25.9,46.2z M37.6,44.5c1.2-2.2,2.6-4.1,3.5-6.3c1.7,3.1,3.2,6.3,3.3,9.8
	c0.1,4-2.5,8.2-6.4,8.9c2-2.9,3.6-6.8,3.2-10.2c-0.1-0.8-1.2-1.1-1.5-0.2c-0.6,1.8-0.7,3.7-1.3,5.5c-0.6,1.7-1.4,3.3-2.2,4.8
	C35,52.6,35.4,48.5,37.6,44.5z M29.8,69c-2.8-1.7-4.5-4.6-6.5-7.2c6-0.8,10.9,2.7,15.7,6.2c0.1,0.1,0.2,0.3,0.3,0.4
	C38,68,36.7,68,35.4,67.5c-2.2-0.8-4.1-2-5.7-3.7c-0.4-0.4-1.1,0.1-0.8,0.6c2.2,3.1,7.5,6.9,11.6,5.4c0,0,0,0,0,0
	C37,71,33.1,71,29.8,69z M61,71.9c0.2-1.1,0.3-2.1,0.3-3.1c3.5-1.6,6.9,0.2,10.4,0.5c-1.2,1.4-2.2,2.9-3.4,4.4
	c-2.7,3.4-6.2,4.3-10,4.4c1.2-0.8,2.3-1.6,3.4-2.5c1.3-1,2.8-1.9,3.8-3.1c0.6-0.7-0.2-1.8-1-1.3c-1.5,0.7-2.7,1.9-3.9,3
	c-0.2,0.1-0.4,0.3-0.5,0.4C60.4,73.8,60.8,72.9,61,71.9z M34,84.1c5.2-2.2,10.9-2.4,16.2-0.7c-2.7,0.2-5.3,0.6-8,0.6
	c-0.9,0-0.9,1.3,0,1.4c3.2,0.4,6.8,0.7,9.9-0.1C46.3,88.5,39.5,88.4,34,84.1z M54.2,77.1c0-0.1,0-0.2-0.1-0.4
	c1.4-2.1,3.5-5.7,2.7-8.2c-0.1-0.4-0.7-0.5-0.9-0.1c-0.7,1.1-0.7,2.5-0.9,3.7c-0.3,1.4-0.8,2.7-1.5,3.9c-4-3.7-0.5-9.2,1.1-13.1
	c0.6-1.3,1-2.5,1.3-3.8C59.1,65.4,61.2,73.7,54.2,77.1z M65.7,105.4c-2,1.5-4.4,2.2-6.8,2.8c1.4-4.7,3.2-11.1,7.6-12.8
	c-0.4,0.8-0.7,1.7-1.1,2.5c-0.6,1.3-1.3,2.7-2.1,3.9c-0.3,0.5,0.4,1.1,0.8,0.7c1-1.2,1.9-2.4,2.6-3.8c0.4-0.7,0.8-1.5,1.1-2.3
	C69.7,99.5,68.5,103.2,65.7,105.4z M70.2,90.8c1.9-1.3,4.1-2.1,6.3-2.8c0.6-0.2,0.5-1.2-0.2-1.2c-3.1,0.2-5.8,1.6-8,3.7
	c-0.1,0-0.1-0.1-0.2-0.1c2.9-4.2,7.3-6,12.6-4.4c2.3,0.7,4.3,1.6,6.4,1.6C82.5,91.5,76,90.9,70.2,90.8z"/>
</svg>
