<svg id="Capa_1" enable-background="new 0 0 512 512" height="512" viewBox="0 0 512 512" width="512" xmlns="http://www.w3.org/2000/svg"><g><path d="m391.8 255.4c-7.3 0-13.3 5.1-14.7 12l-75-6 35.6-45.3 2.2 2.2c2.9 2.9 6.8 4.4 10.6 4.4s7.7-1.5 10.6-4.4l40.7-40.7c2.8-2.8 4.4-6.6 4.4-10.6s-1.6-7.8-4.4-10.6l-152-152c-5.9-5.9-15.3-5.9-21.2 0l-37 37-.2-.2c-19.7-19.7-46-30.6-73.9-30.6-27.9 0-54.2 10.9-73.9 30.6-39.7 39.7-40.8 103.6-3.1 144.6l-29 22.7c-3.4 2.6-5.5 6.6-5.7 10.9-.3 4.3 1.3 8.5 4.4 11.5l165.1 164.9c2.8 2.8 6.6 4.4 10.6 4.4h.9c4.3-.3 8.2-2.3 10.9-5.7l17-21.7 162.4-13c1.4 6.8 7.4 12 14.7 12 8.3 0 15-6.7 15-15l.1-86.5c-.1-8.2-6.8-14.9-15.1-14.9zm-152.6-219.2 130.8 130.8-19.5 19.5-130.8-130.8zm-196.3 78.9c0-19.9 7.8-38.6 21.8-52.7 14.1-14.1 32.8-21.8 52.7-21.8 19.9 0 38.6 7.7 52.6 21.8l12.2 12.2-118 92.6c-13.7-14-21.3-32.5-21.3-52.1zm141.5 247.6-141.1-141 168.1-131.8 104.9 104.9zm192.2-32.9-136.8 10.9 40.1-51 96.8 7.7z"/><path d="m431.6 397.7c-8.3 0-15 6.7-15 15v84.3c0 8.3 6.7 15 15 15s15-6.7 15-15v-84.3c0-8.3-6.8-15-15-15z"/><path d="m461.2 300.2h-9.5c-8.3 0-15 6.7-15 15s6.7 15 15 15h9.5c8.3 0 15 6.7 15 15v151.8c0 8.3 6.7 15 15 15s15-6.7 15-15v-151.8c.1-24.8-20.1-45-45-45z"/></g></svg>